<?xml version="1.0" encoding="utf-8"?>
<!-- Generator: Adobe Illustrator 23.1.0, SVG Export Plug-In . SVG Version: 6.00 Build 0)  -->
<svg version="1.1" id="Lager_1" xmlns="http://www.w3.org/2000/svg" xmlns:xlink="http://www.w3.org/1999/xlink" x="0px" y="0px"
	 viewBox="0 0 1920 753.63" style="enable-background:new 0 0 1920 753.63;" xml:space="preserve">
<style type="text/css">
	.st0{opacity:0.61;fill:url(#SVGID_1_);}
	.st1{fill:url(#SVGID_2_);}
	.st2{opacity:0.4;clip-path:url(#SVGID_4_);fill:url(#SVGID_5_);}
	.st3{display:none;opacity:0.21;clip-path:url(#SVGID_4_);fill:url(#SVGID_6_);}
	.st4{opacity:0.47;clip-path:url(#SVGID_4_);fill:url(#SVGID_7_);}
	.st5{fill:url(#SVGID_8_);}
	.st6{fill:url(#SVGID_9_);}
	.st7{fill:url(#SVGID_10_);}
	.st8{fill:url(#SVGID_11_);}
	.st9{fill:url(#SVGID_12_);}
	.st10{fill:url(#SVGID_13_);}
	.st11{fill:url(#SVGID_14_);}
	.st12{fill:url(#SVGID_15_);}
	.st13{fill:url(#SVGID_16_);}
	.st14{fill:url(#SVGID_17_);}
	.st15{fill:url(#SVGID_18_);}
	.st16{fill:url(#SVGID_19_);}
	.st17{fill:url(#SVGID_20_);}
</style>
<linearGradient id="SVGID_1_" gradientUnits="userSpaceOnUse" x1="-3.869918e-07" y1="376.8139" x2="1920" y2="376.8139" gradientTransform="matrix(-1 0 0 -1 1920 753.6279)">
	<stop  offset="5.586592e-03" style="stop-color:#F4981A"/>
	<stop  offset="1" style="stop-color:#F4CB1C"/>
</linearGradient>
<path class="st0" d="M0,330.64l0,422.99h1920V0c0,0-537.24,112.32-771.59,90.49S343.12,77.89,0,330.64z"/>
<linearGradient id="SVGID_2_" gradientUnits="userSpaceOnUse" x1="-3.859841e-07" y1="365.5941" x2="1920" y2="365.5941" gradientTransform="matrix(-1 0 0 -1 1920 753.6279)">
	<stop  offset="0" style="stop-color:#8E71B0"/>
	<stop  offset="0.5" style="stop-color:#C383B8"/>
	<stop  offset="1" style="stop-color:#B07CAC"/>
</linearGradient>
<path class="st1" d="M0,343.23l0,410.4h1920V22.44c0,0-537.24,108.97-771.59,87.8S343.12,98.01,0,343.23z"/>
<g>
	<defs>
		<path id="SVGID_3_" d="M1920,82.46c0,0-816.06-30.86-1104.06,136.54c0,0-131.29,86.86-347.29,26.85S0,376.92,0,376.92l0,376.71
			h1920V82.46z"/>
	</defs>
	<clipPath id="SVGID_4_">
		<use xlink:href="#SVGID_3_"  style="overflow:visible;"/>
	</clipPath>
	
		<linearGradient id="SVGID_5_" gradientUnits="userSpaceOnUse" x1="85.1401" y1="65.3953" x2="2126.9768" y2="65.3953" gradientTransform="matrix(-1.1723 -0.0262 -0.0262 -1.4273 2320.9714 943.5054)">
		<stop  offset="0" style="stop-color:#60529E"/>
		<stop  offset="0.5307" style="stop-color:#8E71B0"/>
		<stop  offset="1" style="stop-color:#C383B8"/>
	</linearGradient>
	<path class="st2" d="M-164.53,1288.37c-23.36-277.41,372.87-773.15,1064.04-1001.16c678.29-223.76,1291.69,41.5,1315.05,318.91
		s-524.76,572.01-1224.27,658C290.79,1350.11-141.17,1565.78-164.53,1288.37z"/>
	
		<linearGradient id="SVGID_6_" gradientUnits="userSpaceOnUse" x1="810.8338" y1="72.6752" x2="2111.269" y2="72.6752" gradientTransform="matrix(-1 0 0 -1 1920 753.6279)">
		<stop  offset="0" style="stop-color:#AE83B9"/>
		<stop  offset="0.5307" style="stop-color:#A47FAE"/>
		<stop  offset="1" style="stop-color:#8573B2"/>
	</linearGradient>
	<path class="st3" d="M1109.17,456.31c-58.71-10.72-119.18-20.1-181-27.95C330.31,352.44-168.02,448.11-184.89,642.05
		s-43.95,313.93,557.18,317.55C372.29,959.59,906.16,536.81,1109.17,456.31"/>
	
		<linearGradient id="SVGID_7_" gradientUnits="userSpaceOnUse" x1="-258.2126" y1="126.7578" x2="1810.7572" y2="126.7578" gradientTransform="matrix(-1.2889 -0.0759 0.0168 -1.3719 1875.3447 1035.1461)">
		<stop  offset="0" style="stop-color:#8E71B0"/>
		<stop  offset="0.5" style="stop-color:#C383B8"/>
		<stop  offset="1" style="stop-color:#C38360;stop-opacity:0.8"/>
	</linearGradient>
	<path class="st4" d="M-457.69,1286.8C-521.89,1028.67,23.6,602.5,760.69,334.91s1386.66-275.26,1450.85-17.13
		c64.19,258.13-481.29,684.31-1218.38,951.9S-393.5,1544.93-457.69,1286.8z"/>
</g>
<g id="Former">
	<linearGradient id="SVGID_8_" gradientUnits="userSpaceOnUse" x1="1619.5129" y1="233.087" x2="1833.1843" y2="233.087">
		<stop  offset="0" style="stop-color:#F4981A"/>
		<stop  offset="1" style="stop-color:#F4CB1C"/>
	</linearGradient>
	<path class="st5" d="M1622.53,301.28L1622.53,301.28c-9.73-14.33,5.04-40.17,30.79-53.87l167.3-89c11.4-6.06,17.47,2.88,7.63,11.24
		L1683.48,292.6C1661.42,311.34,1632.18,315.5,1622.53,301.28z"/>
	<linearGradient id="SVGID_9_" gradientUnits="userSpaceOnUse" x1="1729.5104" y1="288.7918" x2="1833.1843" y2="288.7918">
		<stop  offset="0" style="stop-color:#F4981A"/>
		<stop  offset="1" style="stop-color:#F4CB1C"/>
	</linearGradient>
	<path class="st6" d="M1730.97,321.88L1730.97,321.88c-4.72-6.95,2.44-19.49,14.94-26.14l81.18-43.18c5.53-2.94,8.48,1.4,3.7,5.45
		l-70.24,59.66C1749.84,326.76,1735.66,328.78,1730.97,321.88z"/>
	<linearGradient id="SVGID_10_" gradientUnits="userSpaceOnUse" x1="174.7601" y1="530.3175" x2="229.8281" y2="434.9369">
		<stop  offset="0" style="stop-color:#8E71B0"/>
		<stop  offset="0.5" style="stop-color:#C383B8"/>
		<stop  offset="1" style="stop-color:#C4837C"/>
	</linearGradient>
	<circle class="st7" cx="202.29" cy="482.63" r="55.06"/>
	<linearGradient id="SVGID_11_" gradientUnits="userSpaceOnUse" x1="72.6207" y1="504.0372" x2="259.6841" y2="507.906">
		<stop  offset="0" style="stop-color:#F4981A"/>
		<stop  offset="1" style="stop-color:#F4CB1C"/>
	</linearGradient>
	<path class="st8" d="M227.82,482.33c-28.38-15.61-63.84-6.95-80.57,20.4c-4.05,2.27-8.71,3.58-13.68,3.58
		c-15.47,0-28.02-12.54-28.02-28.02s12.54-28.02,28.02-28.02c7.54,0,14.38,2.99,19.42,7.84c5.09-10.23,13.27-18.65,23.31-24.04
		c-10.93-10.95-26.04-17.73-42.73-17.73c-33.34,0-60.37,27.03-60.37,60.37c0,33.34,27.03,60.37,60.37,60.37
		c12.98,0,25-4.11,34.84-11.08c-0.08-0.06-0.16-0.13-0.25-0.2c8.89-7.8,34.81-20.22,45.44-14.38c13.56,7.46,18.5,24.49,11.04,38.05
		c-4.5,8.18-12.49,13.22-21.09,14.29c-0.51,8.04-2.74,16.1-6.88,23.62c-1.52,2.77-3.26,5.35-5.15,7.76
		c23.72,2.84,47.87-8.63,60.09-30.84C267.69,535.11,257.03,498.4,227.82,482.33z"/>
	<linearGradient id="SVGID_12_" gradientUnits="userSpaceOnUse" x1="1688.6368" y1="159.3405" x2="1722.3043" y2="101.0268">
		<stop  offset="0" style="stop-color:#8E71B0"/>
		<stop  offset="0.5" style="stop-color:#C383B8"/>
		<stop  offset="1" style="stop-color:#C483A2"/>
	</linearGradient>
	<circle class="st9" cx="1705.47" cy="130.18" r="33.66"/>
	<linearGradient id="SVGID_13_" gradientUnits="userSpaceOnUse" x1="1716.7472" y1="116.8266" x2="1739.3079" y2="77.7504">
		<stop  offset="0" style="stop-color:#8E71B0"/>
		<stop  offset="0.5" style="stop-color:#C383B8"/>
		<stop  offset="1" style="stop-color:#C483A2"/>
	</linearGradient>
	<circle class="st10" cx="1728.03" cy="97.29" r="22.56"/>
	<linearGradient id="SVGID_14_" gradientUnits="userSpaceOnUse" x1="1725.0409" y1="252.1139" x2="1764.1945" y2="184.2979">
		<stop  offset="0" style="stop-color:#8E71B0"/>
		<stop  offset="0.5" style="stop-color:#C383B8"/>
		<stop  offset="1" style="stop-color:#C483A2"/>
	</linearGradient>
	<circle class="st11" cx="1744.62" cy="218.21" r="39.15"/>
	<linearGradient id="SVGID_15_" gradientUnits="userSpaceOnUse" x1="1783.9576" y1="152.9017" x2="1810.1902" y2="107.4656">
		<stop  offset="0" style="stop-color:#8E71B0"/>
		<stop  offset="0.5" style="stop-color:#C383B8"/>
		<stop  offset="1" style="stop-color:#C483A2"/>
	</linearGradient>
	<circle class="st12" cx="1797.07" cy="130.18" r="26.23"/>
	<linearGradient id="SVGID_16_" gradientUnits="userSpaceOnUse" x1="1806.1" y1="210.3043" x2="1824.1582" y2="179.0265">
		<stop  offset="0" style="stop-color:#8E71B0"/>
		<stop  offset="0.5" style="stop-color:#C383B8"/>
		<stop  offset="1" style="stop-color:#C483A2"/>
	</linearGradient>
	<circle class="st13" cx="1815.13" cy="194.67" r="18.06"/>
	<linearGradient id="SVGID_17_" gradientUnits="userSpaceOnUse" x1="90.1371" y1="445.7008" x2="124.0251" y2="387.0051">
		<stop  offset="0" style="stop-color:#8E71B0"/>
		<stop  offset="0.5" style="stop-color:#C383B8"/>
		<stop  offset="1" style="stop-color:#C4837C"/>
	</linearGradient>
	<circle class="st14" cx="107.08" cy="416.35" r="33.88"/>
	<linearGradient id="SVGID_18_" gradientUnits="userSpaceOnUse" x1="130.1087" y1="406.1617" x2="151.8183" y2="368.5598">
		<stop  offset="0" style="stop-color:#8E71B0"/>
		<stop  offset="0.5" style="stop-color:#C383B8"/>
		<stop  offset="1" style="stop-color:#C4837C"/>
	</linearGradient>
	<circle class="st15" cx="140.96" cy="387.36" r="21.71"/>
	<linearGradient id="SVGID_19_" gradientUnits="userSpaceOnUse" x1="185.3361" y1="599.765" x2="210.8404" y2="555.5903">
		<stop  offset="0" style="stop-color:#8E71B0"/>
		<stop  offset="0.5" style="stop-color:#C383B8"/>
		<stop  offset="1" style="stop-color:#C4837C"/>
	</linearGradient>
	<circle class="st16" cx="198.09" cy="577.68" r="25.5"/>
	<linearGradient id="SVGID_20_" gradientUnits="userSpaceOnUse" x1="214.4546" y1="578.9641" x2="229.8983" y2="552.2147">
		<stop  offset="0" style="stop-color:#8E71B0"/>
		<stop  offset="0.5" style="stop-color:#C383B8"/>
		<stop  offset="1" style="stop-color:#C4837C"/>
	</linearGradient>
	<circle class="st17" cx="222.18" cy="565.59" r="15.44"/>
</g>
</svg>
