<?xml version="1.0" encoding="utf-8"?>
<!-- Generator: Adobe Illustrator 23.1.0, SVG Export Plug-In . SVG Version: 6.00 Build 0)  -->
<svg version="1.1" id="Lager_1" xmlns="http://www.w3.org/2000/svg" xmlns:xlink="http://www.w3.org/1999/xlink" x="0px" y="0px"
	 viewBox="0 0 1920 753.6" style="enable-background:new 0 0 1920 753.6;" xml:space="preserve">
<style type="text/css">
	.st0{display:none;opacity:0.61;fill:url(#SVGID_1_);enable-background:new    ;}
	.st1{display:none;fill:url(#SVGID_2_);}
	.st2{opacity:0.61;fill:url(#SVGID_3_);enable-background:new    ;}
	.st3{fill:url(#SVGID_4_);}
	.st4{opacity:0.4;clip-path:url(#SVGID_6_);fill:url(#SVGID_7_);enable-background:new    ;}
	.st5{display:none;opacity:0.21;clip-path:url(#SVGID_9_);fill:url(#SVGID_10_);enable-background:new    ;}
	.st6{opacity:0.47;clip-path:url(#SVGID_12_);fill:url(#SVGID_13_);enable-background:new    ;}
	.st7{fill:url(#SVGID_14_);}
	.st8{fill:url(#SVGID_15_);}
	.st9{fill:url(#SVGID_16_);}
	.st10{fill:url(#SVGID_17_);}
	.st11{fill:url(#SVGID_18_);}
	.st12{fill:url(#SVGID_19_);}
	.st13{fill:url(#SVGID_20_);}
	.st14{fill:url(#SVGID_21_);}
	.st15{fill:url(#SVGID_22_);}
</style>
<linearGradient id="SVGID_1_" gradientUnits="userSpaceOnUse" x1="0" y1="377.1866" x2="1920" y2="377.1866" gradientTransform="matrix(1 0 0 -1 0 754)">
	<stop  offset="0" style="stop-color:#F4981A"/>
	<stop  offset="1" style="stop-color:#F4CB1C"/>
</linearGradient>
<path class="st0" d="M0,751.1c0,0,816.1,34.5,1104.1-152.8c0,0,211.8-151.6,427.8-84.5s388.2-92.3,388.2-92.3V0H0V751.1z"/>
<linearGradient id="SVGID_2_" gradientUnits="userSpaceOnUse" x1="0" y1="387.1852" x2="1920" y2="387.1852" gradientTransform="matrix(1 0 0 -1 0 754)">
	<stop  offset="0" style="stop-color:#8E71B0"/>
	<stop  offset="0.5" style="stop-color:#C383B8"/>
	<stop  offset="1" style="stop-color:#B07CAC"/>
</linearGradient>
<path class="st1" d="M0,731.2c0,0,816.1,33.6,1104.1-148.8c0,0,211.8-147.6,427.8-82.2s388.2-89.8,388.2-89.8V0H0V731.2z"/>
<linearGradient id="SVGID_3_" gradientUnits="userSpaceOnUse" x1="0" y1="377.185" x2="1920" y2="377.185" gradientTransform="matrix(1 0 0 -1 0 754)">
	<stop  offset="0" style="stop-color:#F4981A"/>
	<stop  offset="1" style="stop-color:#F4CB1C"/>
</linearGradient>
<path class="st2" d="M1920,423V0H0v753.6c0,0,537.2-112.3,771.6-90.5C1005.9,685,1576.9,675.7,1920,423z"/>
<linearGradient id="SVGID_4_" gradientUnits="userSpaceOnUse" x1="0" y1="388.405" x2="1920" y2="388.405" gradientTransform="matrix(1 0 0 -1 0 754)">
	<stop  offset="0" style="stop-color:#8E71B0"/>
	<stop  offset="0.5" style="stop-color:#C383B8"/>
	<stop  offset="1" style="stop-color:#B07CAC"/>
</linearGradient>
<path class="st3" d="M1920,410.4V0H0v731.2c0,0,537.2-109,771.6-87.8S1576.9,655.6,1920,410.4z"/>
<g>
	<g>
		<defs>
			<path id="SVGID_5_" d="M0,671.2c0,0,816.1,30.9,1104.1-136.5c0,0,131.3-86.9,347.3-26.9S1920,376.7,1920,376.7V0H0V671.2z"/>
		</defs>
		<clipPath id="SVGID_6_">
			<use xlink:href="#SVGID_5_"  style="overflow:visible;"/>
		</clipPath>
		
			<linearGradient id="SVGID_7_" gradientUnits="userSpaceOnUse" x1="88.561" y1="623.3193" x2="2130.3909" y2="623.3193" gradientTransform="matrix(1.1723 2.620000e-02 -2.620000e-02 -1.4273 -386.9369 793.0565)">
			<stop  offset="0" style="stop-color:#60529E"/>
			<stop  offset="0.5307" style="stop-color:#8E71B0"/>
			<stop  offset="1" style="stop-color:#C383B8"/>
		</linearGradient>
		<path class="st4" d="M2084.5-534.7c23.4,277.4-372.9,773.2-1064,1001.2C342.2,690.2-271.2,424.9-294.6,147.5
			c-23.4-277.4,524.8-572,1224.3-658S2061.2-812.2,2084.5-534.7z"/>
	</g>
	<g>
		<defs>
			<path id="SVGID_8_" d="M0,671.2c0,0,816.1,30.9,1104.1-136.5c0,0,131.3-86.9,347.3-26.9S1920,376.7,1920,376.7V0H0V671.2z"/>
		</defs>
		<clipPath id="SVGID_9_">
			<use xlink:href="#SVGID_8_"  style="overflow:visible;"/>
		</clipPath>
		
			<linearGradient id="SVGID_10_" gradientUnits="userSpaceOnUse" x1="810.83" y1="681.3203" x2="2111.2593" y2="681.3203" gradientTransform="matrix(1 0 0 -1 0 754)">
			<stop  offset="0" style="stop-color:#AE83B9"/>
			<stop  offset="0.5307" style="stop-color:#A47FAE"/>
			<stop  offset="1" style="stop-color:#8573B2"/>
		</linearGradient>
		<path class="st5" d="M810.8,297.3c58.7,10.7,119.2,20.1,181,28c597.8,75.9,1096.2-19.8,1113.1-213.7s43.9-313.9-557.2-317.5
			C1547.7-206,1013.8,216.8,810.8,297.3"/>
	</g>
	<g>
		<defs>
			<path id="SVGID_11_" d="M0,671.2c0,0,816.1,30.9,1104.1-136.5c0,0,131.3-86.9,347.3-26.9S1920,376.7,1920,376.7V0H0V671.2z"/>
		</defs>
		<clipPath id="SVGID_12_">
			<use xlink:href="#SVGID_11_"  style="overflow:visible;"/>
		</clipPath>
		
			<linearGradient id="SVGID_13_" gradientUnits="userSpaceOnUse" x1="-260.3168" y1="567.9338" x2="1808.723" y2="567.9338" gradientTransform="matrix(1.2889 7.590000e-02 1.680000e-02 -1.3719 35.6625 671.7262)">
			<stop  offset="0" style="stop-color:#8E71B0"/>
			<stop  offset="0.5" style="stop-color:#C383B8"/>
			<stop  offset="1" style="stop-color:#C38360;stop-opacity:0.8"/>
		</linearGradient>
		<path class="st6" d="M2377.7-533.2c64.2,258.1-481.3,684.3-1218.4,951.9S-227.3,694-291.5,435.9S189.8-248.5,926.8-516.1
			S2313.5-791.3,2377.7-533.2z"/>
	</g>
</g>
<g id="Former">
	
		<linearGradient id="SVGID_14_" gradientUnits="userSpaceOnUse" x1="107.0862" y1="386.309" x2="320.7587" y2="386.309" gradientTransform="matrix(1 0 0 -1 0 754)">
		<stop  offset="0" style="stop-color:#F4981A"/>
		<stop  offset="1" style="stop-color:#F4CB1C"/>
	</linearGradient>
	<path class="st7" d="M110.1,435.9L110.1,435.9c-9.7-14.3,5-40.2,30.8-53.9l167.3-89c11.4-6.1,17.5,2.9,7.6,11.2l-144.8,123
		C149,445.9,119.8,450.1,110.1,435.9z"/>
	
		<linearGradient id="SVGID_15_" gradientUnits="userSpaceOnUse" x1="217.0775" y1="330.6041" x2="320.759" y2="330.6041" gradientTransform="matrix(1 0 0 -1 0 754)">
		<stop  offset="0" style="stop-color:#F4981A"/>
		<stop  offset="1" style="stop-color:#F4CB1C"/>
	</linearGradient>
	<path class="st8" d="M218.5,456.5L218.5,456.5c-4.7-7,2.4-19.5,14.9-26.1l81.2-43.2c5.5-2.9,8.5,1.4,3.7,5.5l-70.2,59.7
		C237.4,461.4,223.2,463.4,218.5,456.5z"/>
	
		<linearGradient id="SVGID_16_" gradientUnits="userSpaceOnUse" x1="1701.8473" y1="545.7847" x2="1735.5128" y2="604.0953" gradientTransform="matrix(1 0 0 -1 0 754)">
		<stop  offset="0" style="stop-color:#8E71B0"/>
		<stop  offset="0.5" style="stop-color:#C383B8"/>
		<stop  offset="1" style="stop-color:#C483A2"/>
	</linearGradient>
	<circle class="st9" cx="1718.7" cy="179.1" r="33.7"/>
	
		<linearGradient id="SVGID_17_" gradientUnits="userSpaceOnUse" x1="174.7554" y1="393.6786" x2="229.8246" y2="489.0613" gradientTransform="matrix(1 0 0 -1 0 754)">
		<stop  offset="0" style="stop-color:#8E71B0"/>
		<stop  offset="0.5" style="stop-color:#C383B8"/>
		<stop  offset="1" style="stop-color:#C4837C;stop-opacity:0.7"/>
	</linearGradient>
	<circle class="st10" cx="202.3" cy="312.6" r="55.1"/>
	
		<linearGradient id="SVGID_18_" gradientUnits="userSpaceOnUse" x1="1725.0417" y1="501.8794" x2="1764.1982" y2="569.7006" gradientTransform="matrix(1 0 0 -1 0 754)">
		<stop  offset="0" style="stop-color:#8E71B0"/>
		<stop  offset="0.5" style="stop-color:#C383B8"/>
		<stop  offset="1" style="stop-color:#C483A2"/>
	</linearGradient>
	<circle class="st11" cx="1744.6" cy="218.2" r="39.2"/>
	
		<linearGradient id="SVGID_19_" gradientUnits="userSpaceOnUse" x1="1783.9528" y1="601.1003" x2="1810.1871" y2="646.5397" gradientTransform="matrix(1 0 0 -1 0 754)">
		<stop  offset="0" style="stop-color:#8E71B0"/>
		<stop  offset="0.5" style="stop-color:#C383B8"/>
		<stop  offset="1" style="stop-color:#C483A2"/>
	</linearGradient>
	<circle class="st12" cx="1797.1" cy="130.2" r="26.2"/>
	
		<linearGradient id="SVGID_20_" gradientUnits="userSpaceOnUse" x1="1806.0985" y1="543.687" x2="1824.1615" y2="574.973" gradientTransform="matrix(1 0 0 -1 0 754)">
		<stop  offset="0" style="stop-color:#8E71B0"/>
		<stop  offset="0.5" style="stop-color:#C383B8"/>
		<stop  offset="1" style="stop-color:#C483A2"/>
	</linearGradient>
	<circle class="st13" cx="1815.1" cy="194.7" r="18.1"/>
	
		<linearGradient id="SVGID_21_" gradientUnits="userSpaceOnUse" x1="90.1372" y1="478.3042" x2="124.0228" y2="536.9958" gradientTransform="matrix(1 0 0 -1 0 754)">
		<stop  offset="0" style="stop-color:#8E71B0"/>
		<stop  offset="0.5" style="stop-color:#C383B8"/>
		<stop  offset="1" style="stop-color:#C4837C;stop-opacity:0.7"/>
	</linearGradient>
	<circle class="st14" cx="107.1" cy="246.4" r="33.9"/>
	
		<linearGradient id="SVGID_22_" gradientUnits="userSpaceOnUse" x1="130.1031" y1="517.8355" x2="151.8169" y2="555.4445" gradientTransform="matrix(1 0 0 -1 0 754)">
		<stop  offset="0" style="stop-color:#8E71B0"/>
		<stop  offset="0.5" style="stop-color:#C383B8"/>
		<stop  offset="1" style="stop-color:#C4837C;stop-opacity:0.7"/>
	</linearGradient>
	<circle class="st15" cx="141" cy="217.4" r="21.7"/>
</g>
</svg>
