<?xml version="1.0" encoding="utf-8"?>
<!-- Generator: Adobe Illustrator 23.1.0, SVG Export Plug-In . SVG Version: 6.00 Build 0)  -->
<svg version="1.1" id="Lager_1" xmlns="http://www.w3.org/2000/svg" xmlns:xlink="http://www.w3.org/1999/xlink" x="0px" y="0px"
	 viewBox="0 0 1920 753.63" style="enable-background:new 0 0 1920 753.63;" xml:space="preserve">
<style type="text/css">
	.st0{display:none;opacity:0.61;fill:url(#SVGID_1_);}
	.st1{display:none;fill:url(#SVGID_2_);}
	.st2{opacity:0.61;fill:url(#SVGID_3_);}
	.st3{fill:url(#SVGID_4_);}
	.st4{opacity:0.4;clip-path:url(#SVGID_6_);fill:url(#SVGID_7_);}
	.st5{display:none;opacity:0.21;clip-path:url(#SVGID_6_);fill:url(#SVGID_8_);}
	.st6{opacity:0.47;clip-path:url(#SVGID_6_);fill:url(#SVGID_9_);}
	.st7{fill:url(#SVGID_10_);}
	.st8{fill:url(#SVGID_11_);}
	.st9{fill:url(#SVGID_12_);}
	.st10{fill:url(#SVGID_13_);}
	.st11{fill:url(#SVGID_14_);}
	.st12{fill:url(#SVGID_15_);}
	.st13{fill:url(#SVGID_16_);}
	.st14{fill:url(#SVGID_17_);}
	.st15{fill:url(#SVGID_18_);}
</style>
<linearGradient id="SVGID_1_" gradientUnits="userSpaceOnUse" x1="0" y1="376.8139" x2="1920" y2="376.8139">
	<stop  offset="0" style="stop-color:#F4981A"/>
	<stop  offset="1" style="stop-color:#F4CB1C"/>
</linearGradient>
<path class="st0" d="M0,751.12c0,0,816.06,34.54,1104.06-152.8c0,0,211.76-151.61,427.76-84.45S1920,421.59,1920,421.59V0H0V751.12z
	"/>
<linearGradient id="SVGID_2_" gradientUnits="userSpaceOnUse" x1="0" y1="366.8139" x2="1920" y2="366.8139">
	<stop  offset="0" style="stop-color:#8E71B0"/>
	<stop  offset="0.5" style="stop-color:#C383B8"/>
	<stop  offset="1" style="stop-color:#B07CAC"/>
</linearGradient>
<path class="st1" d="M0,731.19c0,0,816.06,33.62,1104.06-148.75c0,0,211.76-147.58,427.76-82.21S1920,410.4,1920,410.4V0H0V731.19z"
	/>
<linearGradient id="SVGID_3_" gradientUnits="userSpaceOnUse" x1="0" y1="376.8139" x2="1920" y2="376.8139">
	<stop  offset="0" style="stop-color:#F4981A"/>
	<stop  offset="1" style="stop-color:#F4CB1C"/>
</linearGradient>
<path class="st2" d="M1920,422.99V0H0v753.63c0,0,537.24-112.32,771.59-90.49C1005.94,684.96,1576.88,675.74,1920,422.99z"/>
<linearGradient id="SVGID_4_" gradientUnits="userSpaceOnUse" x1="0" y1="365.5941" x2="1920" y2="365.5941">
	<stop  offset="0" style="stop-color:#8E71B0"/>
	<stop  offset="0.5" style="stop-color:#C383B8"/>
	<stop  offset="1" style="stop-color:#B07CAC"/>
</linearGradient>
<path class="st3" d="M1920,410.4V0H0v731.19c0,0,537.24-108.97,771.59-87.8S1576.88,655.62,1920,410.4z"/>
<g>
	<defs>
		<path id="SVGID_5_" d="M0,671.17c0,0,816.06,30.86,1104.06-136.54c0,0,131.29-86.86,347.29-26.85S1920,376.71,1920,376.71V0H0
			V671.17z"/>
	</defs>
	<clipPath id="SVGID_6_">
		<use xlink:href="#SVGID_5_"  style="overflow:visible;"/>
	</clipPath>
	
		<linearGradient id="SVGID_7_" gradientUnits="userSpaceOnUse" x1="87.7457" y1="115.1135" x2="2129.5823" y2="115.1135" gradientTransform="matrix(1.1723 0.0262 0.0262 1.4273 -405.3293 -260.9081)">
		<stop  offset="0" style="stop-color:#60529E"/>
		<stop  offset="0.5307" style="stop-color:#8E71B0"/>
		<stop  offset="1" style="stop-color:#C383B8"/>
	</linearGradient>
	<path class="st4" d="M2084.53-534.74c23.36,277.41-372.87,773.15-1064.04,1001.16C342.2,690.18-271.21,424.92-294.57,147.5
		c-23.36-277.41,524.76-572.01,1224.27-658S2061.17-812.15,2084.53-534.74z"/>
	<linearGradient id="SVGID_8_" gradientUnits="userSpaceOnUse" x1="810.8338" y1="72.6752" x2="2111.269" y2="72.6752">
		<stop  offset="0" style="stop-color:#AE83B9"/>
		<stop  offset="0.5307" style="stop-color:#A47FAE"/>
		<stop  offset="1" style="stop-color:#8573B2"/>
	</linearGradient>
	<path class="st5" d="M810.83,297.32c58.71,10.72,119.18,20.1,181,27.95c597.85,75.92,1096.18-19.75,1113.05-213.68
		s43.95-313.93-557.18-317.55C1547.71-205.96,1013.84,216.82,810.83,297.32"/>
	
		<linearGradient id="SVGID_9_" gradientUnits="userSpaceOnUse" x1="-259.7953" y1="171.9126" x2="1809.1746" y2="171.9126" gradientTransform="matrix(1.2889 0.0759 -0.0168 1.3719 47.4561 -343.3476)">
		<stop  offset="0" style="stop-color:#8E71B0"/>
		<stop  offset="0.5" style="stop-color:#C383B8"/>
		<stop  offset="1" style="stop-color:#C38360;stop-opacity:0.8"/>
	</linearGradient>
	<path class="st6" d="M2377.69-533.17c64.19,258.13-481.29,684.31-1218.38,951.9S-227.34,693.98-291.54,435.85
		s481.29-684.31,1218.38-951.9S2313.5-791.3,2377.69-533.17z"/>
</g>
<g id="Former">
	<linearGradient id="SVGID_10_" gradientUnits="userSpaceOnUse" x1="107.0811" y1="537.686" x2="320.7526" y2="537.686">
		<stop  offset="0" style="stop-color:#F4981A"/>
		<stop  offset="1" style="stop-color:#F4CB1C"/>
	</linearGradient>
	<path class="st7" d="M110.1,605.88L110.1,605.88c-9.73-14.33,5.04-40.17,30.79-53.87l167.3-89c11.4-6.06,17.47,2.88,7.63,11.24
		L171.05,597.2C148.99,615.93,119.75,620.1,110.1,605.88z"/>
	<linearGradient id="SVGID_11_" gradientUnits="userSpaceOnUse" x1="217.0786" y1="593.3908" x2="320.7526" y2="593.3908">
		<stop  offset="0" style="stop-color:#F4981A"/>
		<stop  offset="1" style="stop-color:#F4CB1C"/>
	</linearGradient>
	<path class="st8" d="M218.54,626.48L218.54,626.48c-4.72-6.95,2.44-19.49,14.94-26.14l81.18-43.18c5.53-2.94,8.48,1.4,3.7,5.45
		l-70.24,59.66C237.41,631.36,223.23,633.38,218.54,626.48z"/>
	<linearGradient id="SVGID_12_" gradientUnits="userSpaceOnUse" x1="1701.8503" y1="208.2156" x2="1735.5177" y2="149.902">
		<stop  offset="0" style="stop-color:#8E71B0"/>
		<stop  offset="0.5" style="stop-color:#C383B8"/>
		<stop  offset="1" style="stop-color:#C483A2"/>
	</linearGradient>
	<circle class="st9" cx="1718.68" cy="179.06" r="33.66"/>
	<linearGradient id="SVGID_13_" gradientUnits="userSpaceOnUse" x1="174.7601" y1="530.3175" x2="229.8281" y2="434.9369">
		<stop  offset="0" style="stop-color:#8E71B0"/>
		<stop  offset="0.5" style="stop-color:#C383B8"/>
		<stop  offset="1" style="stop-color:#C4837C;stop-opacity:0.7"/>
	</linearGradient>
	<circle class="st10" cx="202.29" cy="482.63" r="55.06"/>
	<linearGradient id="SVGID_14_" gradientUnits="userSpaceOnUse" x1="1725.0409" y1="252.1139" x2="1764.1945" y2="184.2979">
		<stop  offset="0" style="stop-color:#8E71B0"/>
		<stop  offset="0.5" style="stop-color:#C383B8"/>
		<stop  offset="1" style="stop-color:#C483A2"/>
	</linearGradient>
	<circle class="st11" cx="1744.62" cy="218.21" r="39.15"/>
	<linearGradient id="SVGID_15_" gradientUnits="userSpaceOnUse" x1="1783.9576" y1="152.9017" x2="1810.1902" y2="107.4656">
		<stop  offset="0" style="stop-color:#8E71B0"/>
		<stop  offset="0.5" style="stop-color:#C383B8"/>
		<stop  offset="1" style="stop-color:#C483A2"/>
	</linearGradient>
	<circle class="st12" cx="1797.07" cy="130.18" r="26.23"/>
	<linearGradient id="SVGID_16_" gradientUnits="userSpaceOnUse" x1="1806.1" y1="210.3043" x2="1824.1582" y2="179.0265">
		<stop  offset="0" style="stop-color:#8E71B0"/>
		<stop  offset="0.5" style="stop-color:#C383B8"/>
		<stop  offset="1" style="stop-color:#C483A2"/>
	</linearGradient>
	<circle class="st13" cx="1815.13" cy="194.67" r="18.06"/>
	<linearGradient id="SVGID_17_" gradientUnits="userSpaceOnUse" x1="90.1371" y1="445.7008" x2="124.0251" y2="387.0051">
		<stop  offset="0" style="stop-color:#8E71B0"/>
		<stop  offset="0.5" style="stop-color:#C383B8"/>
		<stop  offset="1" style="stop-color:#C4837C;stop-opacity:0.7"/>
	</linearGradient>
	<circle class="st14" cx="107.08" cy="416.35" r="33.88"/>
	<linearGradient id="SVGID_18_" gradientUnits="userSpaceOnUse" x1="130.1087" y1="406.1617" x2="151.8183" y2="368.5598">
		<stop  offset="0" style="stop-color:#8E71B0"/>
		<stop  offset="0.5" style="stop-color:#C383B8"/>
		<stop  offset="1" style="stop-color:#C4837C;stop-opacity:0.7"/>
	</linearGradient>
	<circle class="st15" cx="140.96" cy="387.36" r="21.71"/>
</g>
</svg>
