<?xml version="1.0" encoding="utf-8"?>
<!-- Generator: Adobe Illustrator 23.1.0, SVG Export Plug-In . SVG Version: 6.00 Build 0)  -->
<svg version="1.1" id="Lager_1" xmlns="http://www.w3.org/2000/svg" xmlns:xlink="http://www.w3.org/1999/xlink" x="0px" y="0px"
	 viewBox="0 0 26 26" style="enable-background:new 0 0 26 26;" xml:space="preserve">
<style type="text/css">
	.st0{fill:#FFFFFF;}
</style>
<title>meny</title>
<g id="Avrundad_rektangel_1">
	<g id="Avrundad_rektangel_1-2">
		<path class="st0" d="M23.5,0h-21C1.1,0,0,1.1,0,2.5S1.1,5,2.5,5h21C24.9,5,26,3.9,26,2.5S24.9,0,23.5,0z"/>
	</g>
</g>
<g id="Avrundad_rektangel_1_kopiera">
	<g id="Avrundad_rektangel_1_kopiera-2">
		<path class="st0" d="M23.5,21h-21C1.1,21,0,22.1,0,23.5S1.1,26,2.5,26h21c1.4,0,2.5-1.1,2.5-2.5S24.9,21,23.5,21z"/>
	</g>
</g>
<g id="Avrundad_rektangel_1_kopiera_2">
	<g id="Avrundad_rektangel_1_kopiera_2-2">
		<path class="st0" d="M23.5,10.5h-21C1.1,10.5,0,11.6,0,13s1.1,2.5,2.5,2.5h21c1.4,0,2.5-1.1,2.5-2.5S24.9,10.5,23.5,10.5
			L23.5,10.5z"/>
	</g>
</g>
</svg>
